<svg width="30" height="41" viewBox="0 0 30 41" fill="none" xmlns="http://www.w3.org/2000/svg">
<g filter="url(#filter0_d_978_9)">
<path d="M3.00138 38C2.38552 38 1.8669 37.8379 1.44552 37.5138C1.05655 37.1572 0.862069 36.6872 0.862069 36.1038V1.92344C0.862069 1.37241 1.04035 0.918615 1.3969 0.562064C1.75345 0.205513 2.20724 0.0272377 2.75828 0.0272377H14.5731C16.5179 0.0272377 18.2683 0.448616 19.8241 1.29137C21.4124 2.10172 22.6603 3.22 23.5679 4.6462C24.5079 6.07241 24.9779 7.72551 24.9779 9.60551C24.9779 11.3559 24.5079 12.9117 23.5679 14.2731C22.6279 15.6345 21.3962 16.6717 19.8728 17.3848C22.0445 17.9683 23.7948 19.0703 25.1238 20.691C26.4528 22.2793 27.1172 24.3052 27.1172 26.7686C27.1172 28.9728 26.6148 30.9176 25.61 32.6031C24.6052 34.2886 23.2114 35.6176 21.4286 36.59C19.6783 37.53 17.6686 38 15.3997 38H3.00138ZM4.65448 34.3534H15.3997C16.9555 34.3534 18.3331 34.0455 19.5324 33.4297C20.7317 32.8138 21.6717 31.9386 22.3524 30.8041C23.0331 29.6697 23.3735 28.3245 23.3735 26.7686C23.3735 25.31 23.0331 24.0459 22.3524 22.9762C21.6717 21.8741 20.7317 21.0314 19.5324 20.4479C18.3331 19.8321 16.9555 19.5241 15.3997 19.5241H4.65448V34.3534ZM4.65448 15.8776H14.5731C16.5179 15.8776 18.1224 15.3265 19.3866 14.2245C20.6507 13.1224 21.2828 11.5828 21.2828 9.60551C21.2828 7.66068 20.6507 6.18586 19.3866 5.18103C18.1224 4.1762 16.5179 3.67379 14.5731 3.67379H4.65448V15.8776Z" fill="#FFD300"/>
</g>
<defs>
<filter id="filter0_d_978_9" x="0.862061" y="0.0273438" width="28.9328" height="40.6503" filterUnits="userSpaceOnUse" color-interpolation-filters="sRGB">
<feFlood flood-opacity="0" result="BackgroundImageFix"/>
<feColorMatrix in="SourceAlpha" type="matrix" values="0 0 0 0 0 0 0 0 0 0 0 0 0 0 0 0 0 0 127 0" result="hardAlpha"/>
<feOffset dx="1.33883" dy="1.33883"/>
<feGaussianBlur stdDeviation="0.669415"/>
<feComposite in2="hardAlpha" operator="out"/>
<feColorMatrix type="matrix" values="0 0 0 0 0 0 0 0 0 0 0 0 0 0 0 0 0 0 0.5 0"/>
<feBlend mode="normal" in2="BackgroundImageFix" result="effect1_dropShadow_978_9"/>
<feBlend mode="normal" in="SourceGraphic" in2="effect1_dropShadow_978_9" result="shape"/>
</filter>
</defs>
</svg>
