<svg width="39" height="41" viewBox="0 0 39 41" fill="none" xmlns="http://www.w3.org/2000/svg">
<g filter="url(#filter0_d_977_8)">
<path d="M18.3061 36.739C17.2487 36.739 16.4557 36.1663 15.927 35.0208L1.25565 3.8938C0.991304 3.32104 0.969275 2.74829 1.18957 2.17554C1.40986 1.60278 1.85043 1.1622 2.5113 0.853796C3.12812 0.545391 3.7229 0.501334 4.29565 0.721624C4.86841 0.941913 5.30899 1.33844 5.61739 1.91119L19.6939 32.3773H16.9843L30.8626 1.91119C31.127 1.29438 31.5675 0.897856 32.1843 0.721624C32.8452 0.501334 33.4841 0.523363 34.1009 0.78771C34.7177 1.09612 35.1362 1.55873 35.3565 2.17554C35.5768 2.74829 35.5548 3.29901 35.2904 3.82771L20.8174 35.0208C20.2887 36.1663 19.4516 36.739 18.3061 36.739Z" fill="#0078AA"/>
</g>
<defs>
<filter id="filter0_d_977_8" x="0.859131" y="0.391113" width="38.1322" height="39.6522" filterUnits="userSpaceOnUse" color-interpolation-filters="sRGB">
<feFlood flood-opacity="0" result="BackgroundImageFix"/>
<feColorMatrix in="SourceAlpha" type="matrix" values="0 0 0 0 0 0 0 0 0 0 0 0 0 0 0 0 0 0 127 0" result="hardAlpha"/>
<feOffset dx="1.65217" dy="1.65217"/>
<feGaussianBlur stdDeviation="0.826087"/>
<feComposite in2="hardAlpha" operator="out"/>
<feColorMatrix type="matrix" values="0 0 0 0 0 0 0 0 0 0 0 0 0 0 0 0 0 0 0.5 0"/>
<feBlend mode="normal" in2="BackgroundImageFix" result="effect1_dropShadow_977_8"/>
<feBlend mode="normal" in="SourceGraphic" in2="effect1_dropShadow_977_8" result="shape"/>
</filter>
</defs>
</svg>
